%
M48
M72
T01C0.02400
T02C0.02756
T03C0.03150
T04C0.03200
T05C0.03600
T06C0.04000
T07C0.04400
T08C0.05118
T09C0.05200
T10C0.07874
%
T01
X146251Y120081
X149972Y126826
X157631Y122049
X158827Y128703
X166428Y114667
X187590Y93506
X190050Y68408
X184637Y68408
X223417Y71057
X237787Y68408
X224991Y121065
X203830Y121065
X233357Y166833
X226468Y189963
X221054Y189963
X228928Y208171
X232373Y212108
X232373Y217522
X237787Y217522
X237787Y222935
X224007Y220475
X217117Y227856
X210720Y223919
X198417Y230809
X220027Y245729
X203512Y266429
X200227Y272729
X193027Y266429
X208012Y273004
X207767Y286419
X191227Y293429
X184927Y293429
X170182Y292952
X172615Y283839
X158009Y284675
X159234Y274933
X145292Y280672
X137393Y289864
X142965Y307023
X148027Y315929
X124709Y323963
X129666Y344729
X103927Y337529
X101227Y351929
X74227Y325829
X67574Y320775
X92227Y289829
X90427Y279929
X105629Y271801
X104143Y260338
X117855Y260365
X130334Y259684
X164460Y243679
X169532Y246612
X174842Y243431
X168397Y205219
X162983Y203250
X170253Y191025
X158827Y188129
X155109Y169786
X248827Y249329
X229927Y316829
X236274Y341309
X206468Y339860
X186468Y339860
X202027Y375329
X271995Y363400
X299792Y334829
X310027Y333029
X303727Y316829
X99427Y317729
X42342Y354419
X32688Y330506
T02
X82783Y279624
X124279Y293337
X77050Y388585
T03
X156397Y304144
X146539Y292786
X146716Y286837
X126413Y266671
X117405Y276093
X111554Y288951
X85763Y271337
X85637Y256124
X115487Y234467
X125342Y234400
X208980Y148538
X218980Y148538
X228980Y148538
X238980Y148538
X248980Y148538
X258980Y148538
X268980Y148538
X278980Y148538
X278980Y98538
X268980Y98538
X258980Y98538
X248980Y98538
X238980Y98538
X228980Y98538
X218980Y98538
X208980Y98538
T04
X22208Y28817
X22208Y38817
X40818Y47534
X40818Y57534
X50326Y30978
X50326Y20978
X72641Y30597
X72641Y40597
X95566Y48045
X105566Y48045
X121901Y46475
X131901Y46475
X133491Y25628
X123491Y25628
X203224Y75187
X213224Y65187
X213224Y85187
X187645Y227203
X177645Y227203
X142794Y244963
X142794Y254963
X120129Y303140
X110129Y303140
X133401Y319226
X143401Y319226
X159401Y311250
X169401Y311250
X171641Y322333
X161641Y322333
X196507Y321404
X206507Y321404
X204822Y309030
X194822Y309030
X226424Y276636
X226424Y266636
X228180Y254498
X228180Y244498
X261850Y340167
X271850Y340167
X283854Y369459
X293854Y369459
X333624Y329843
X340571Y322649
X238003Y360805
X228003Y360805
X218003Y360805
X208003Y360805
X198003Y360805
X188003Y360805
X178003Y360805
X168003Y360805
X168003Y390805
X178003Y390805
X188003Y390805
X198003Y390805
X208003Y390805
X218003Y390805
X228003Y390805
X238003Y390805
X122932Y362939
X112932Y362939
X59687Y327424
X52753Y320218
X67735Y297538
X67735Y287538
X81066Y286116
X81066Y296116
T05
X137716Y338136
X147716Y338136
X147716Y348136
X137716Y348136
X157716Y348136
X157716Y338136
X105361Y27093
X95361Y27093
T06
X33106Y84372
X156834Y49549
X166834Y49549
X176834Y49549
X186834Y49549
X196834Y49549
X206834Y49549
X216834Y49549
X226834Y49549
X236834Y49549
X246834Y49549
X256834Y49549
X266834Y49549
X276834Y49549
X286834Y49549
X296834Y49549
X306834Y49549
X261743Y77498
X212259Y163238
X212259Y173238
X212259Y183238
X212259Y193238
X212259Y203238
X212259Y213238
X189066Y212994
X189066Y202994
X189066Y192994
X189066Y182994
X189066Y172994
X189066Y162994
X92243Y228108
X156617Y371723
X298889Y288073
X298889Y278073
X298889Y268073
X298889Y258073
T07
X350925Y310202
X322641Y338487
X305830Y369171
X265830Y369171
X137680Y363022
X97680Y363022
X69941Y339412
X41656Y311128
X83212Y128045
X123212Y128045
X145054Y108423
X145054Y68423
T08
X240546Y252364
X240743Y270459
X240905Y289160
X266495Y289160
X266334Y270459
X266137Y252364
X248483Y323656
X222893Y323656
T09
X302011Y125163
X326511Y105163
X302011Y85163
T10
X333751Y152561
X333751Y223427
X378043Y317915
X338672Y356892
X314263Y384845
X259145Y384845
X142609Y384845
X87491Y384845
X63082Y356892
X23712Y317915
X68003Y223427
X68003Y152561
M30
