G75*
%MOIN*%
%OFA0B0*%
%FSLAX25Y25*%
%IPPOS*%
%LPD*%
%AMOC8*
5,1,8,0,0,1.08239X$1,22.5*
%
%ADD10C,0.00000*%
D10*
X0004027Y0010829D02*
X0004027Y0109254D01*
X0051271Y0109254D01*
X0051271Y0266734D01*
X0004027Y0266734D01*
X0004027Y0325789D01*
X0082767Y0404530D01*
X0318987Y0404530D01*
X0397728Y0325789D01*
X0397728Y0266734D01*
X0350483Y0266734D01*
X0350483Y0109254D01*
X0397728Y0109254D01*
X0397728Y0010829D01*
X0004027Y0010829D01*
X0064066Y0152561D02*
X0064068Y0152686D01*
X0064074Y0152811D01*
X0064084Y0152935D01*
X0064098Y0153059D01*
X0064115Y0153183D01*
X0064137Y0153306D01*
X0064163Y0153428D01*
X0064192Y0153550D01*
X0064225Y0153670D01*
X0064263Y0153789D01*
X0064303Y0153908D01*
X0064348Y0154024D01*
X0064396Y0154139D01*
X0064448Y0154253D01*
X0064504Y0154365D01*
X0064563Y0154475D01*
X0064625Y0154583D01*
X0064691Y0154690D01*
X0064760Y0154794D01*
X0064833Y0154895D01*
X0064908Y0154995D01*
X0064987Y0155092D01*
X0065069Y0155186D01*
X0065154Y0155278D01*
X0065241Y0155367D01*
X0065332Y0155453D01*
X0065425Y0155536D01*
X0065521Y0155617D01*
X0065619Y0155694D01*
X0065719Y0155768D01*
X0065822Y0155839D01*
X0065927Y0155906D01*
X0066035Y0155971D01*
X0066144Y0156031D01*
X0066255Y0156089D01*
X0066368Y0156142D01*
X0066482Y0156192D01*
X0066598Y0156239D01*
X0066715Y0156281D01*
X0066834Y0156320D01*
X0066954Y0156356D01*
X0067075Y0156387D01*
X0067197Y0156415D01*
X0067319Y0156438D01*
X0067443Y0156458D01*
X0067567Y0156474D01*
X0067691Y0156486D01*
X0067816Y0156494D01*
X0067941Y0156498D01*
X0068065Y0156498D01*
X0068190Y0156494D01*
X0068315Y0156486D01*
X0068439Y0156474D01*
X0068563Y0156458D01*
X0068687Y0156438D01*
X0068809Y0156415D01*
X0068931Y0156387D01*
X0069052Y0156356D01*
X0069172Y0156320D01*
X0069291Y0156281D01*
X0069408Y0156239D01*
X0069524Y0156192D01*
X0069638Y0156142D01*
X0069751Y0156089D01*
X0069862Y0156031D01*
X0069972Y0155971D01*
X0070079Y0155906D01*
X0070184Y0155839D01*
X0070287Y0155768D01*
X0070387Y0155694D01*
X0070485Y0155617D01*
X0070581Y0155536D01*
X0070674Y0155453D01*
X0070765Y0155367D01*
X0070852Y0155278D01*
X0070937Y0155186D01*
X0071019Y0155092D01*
X0071098Y0154995D01*
X0071173Y0154895D01*
X0071246Y0154794D01*
X0071315Y0154690D01*
X0071381Y0154583D01*
X0071443Y0154475D01*
X0071502Y0154365D01*
X0071558Y0154253D01*
X0071610Y0154139D01*
X0071658Y0154024D01*
X0071703Y0153908D01*
X0071743Y0153789D01*
X0071781Y0153670D01*
X0071814Y0153550D01*
X0071843Y0153428D01*
X0071869Y0153306D01*
X0071891Y0153183D01*
X0071908Y0153059D01*
X0071922Y0152935D01*
X0071932Y0152811D01*
X0071938Y0152686D01*
X0071940Y0152561D01*
X0071938Y0152436D01*
X0071932Y0152311D01*
X0071922Y0152187D01*
X0071908Y0152063D01*
X0071891Y0151939D01*
X0071869Y0151816D01*
X0071843Y0151694D01*
X0071814Y0151572D01*
X0071781Y0151452D01*
X0071743Y0151333D01*
X0071703Y0151214D01*
X0071658Y0151098D01*
X0071610Y0150983D01*
X0071558Y0150869D01*
X0071502Y0150757D01*
X0071443Y0150647D01*
X0071381Y0150539D01*
X0071315Y0150432D01*
X0071246Y0150328D01*
X0071173Y0150227D01*
X0071098Y0150127D01*
X0071019Y0150030D01*
X0070937Y0149936D01*
X0070852Y0149844D01*
X0070765Y0149755D01*
X0070674Y0149669D01*
X0070581Y0149586D01*
X0070485Y0149505D01*
X0070387Y0149428D01*
X0070287Y0149354D01*
X0070184Y0149283D01*
X0070079Y0149216D01*
X0069971Y0149151D01*
X0069862Y0149091D01*
X0069751Y0149033D01*
X0069638Y0148980D01*
X0069524Y0148930D01*
X0069408Y0148883D01*
X0069291Y0148841D01*
X0069172Y0148802D01*
X0069052Y0148766D01*
X0068931Y0148735D01*
X0068809Y0148707D01*
X0068687Y0148684D01*
X0068563Y0148664D01*
X0068439Y0148648D01*
X0068315Y0148636D01*
X0068190Y0148628D01*
X0068065Y0148624D01*
X0067941Y0148624D01*
X0067816Y0148628D01*
X0067691Y0148636D01*
X0067567Y0148648D01*
X0067443Y0148664D01*
X0067319Y0148684D01*
X0067197Y0148707D01*
X0067075Y0148735D01*
X0066954Y0148766D01*
X0066834Y0148802D01*
X0066715Y0148841D01*
X0066598Y0148883D01*
X0066482Y0148930D01*
X0066368Y0148980D01*
X0066255Y0149033D01*
X0066144Y0149091D01*
X0066034Y0149151D01*
X0065927Y0149216D01*
X0065822Y0149283D01*
X0065719Y0149354D01*
X0065619Y0149428D01*
X0065521Y0149505D01*
X0065425Y0149586D01*
X0065332Y0149669D01*
X0065241Y0149755D01*
X0065154Y0149844D01*
X0065069Y0149936D01*
X0064987Y0150030D01*
X0064908Y0150127D01*
X0064833Y0150227D01*
X0064760Y0150328D01*
X0064691Y0150432D01*
X0064625Y0150539D01*
X0064563Y0150647D01*
X0064504Y0150757D01*
X0064448Y0150869D01*
X0064396Y0150983D01*
X0064348Y0151098D01*
X0064303Y0151214D01*
X0064263Y0151333D01*
X0064225Y0151452D01*
X0064192Y0151572D01*
X0064163Y0151694D01*
X0064137Y0151816D01*
X0064115Y0151939D01*
X0064098Y0152063D01*
X0064084Y0152187D01*
X0064074Y0152311D01*
X0064068Y0152436D01*
X0064066Y0152561D01*
X0064066Y0223427D02*
X0064068Y0223552D01*
X0064074Y0223677D01*
X0064084Y0223801D01*
X0064098Y0223925D01*
X0064115Y0224049D01*
X0064137Y0224172D01*
X0064163Y0224294D01*
X0064192Y0224416D01*
X0064225Y0224536D01*
X0064263Y0224655D01*
X0064303Y0224774D01*
X0064348Y0224890D01*
X0064396Y0225005D01*
X0064448Y0225119D01*
X0064504Y0225231D01*
X0064563Y0225341D01*
X0064625Y0225449D01*
X0064691Y0225556D01*
X0064760Y0225660D01*
X0064833Y0225761D01*
X0064908Y0225861D01*
X0064987Y0225958D01*
X0065069Y0226052D01*
X0065154Y0226144D01*
X0065241Y0226233D01*
X0065332Y0226319D01*
X0065425Y0226402D01*
X0065521Y0226483D01*
X0065619Y0226560D01*
X0065719Y0226634D01*
X0065822Y0226705D01*
X0065927Y0226772D01*
X0066035Y0226837D01*
X0066144Y0226897D01*
X0066255Y0226955D01*
X0066368Y0227008D01*
X0066482Y0227058D01*
X0066598Y0227105D01*
X0066715Y0227147D01*
X0066834Y0227186D01*
X0066954Y0227222D01*
X0067075Y0227253D01*
X0067197Y0227281D01*
X0067319Y0227304D01*
X0067443Y0227324D01*
X0067567Y0227340D01*
X0067691Y0227352D01*
X0067816Y0227360D01*
X0067941Y0227364D01*
X0068065Y0227364D01*
X0068190Y0227360D01*
X0068315Y0227352D01*
X0068439Y0227340D01*
X0068563Y0227324D01*
X0068687Y0227304D01*
X0068809Y0227281D01*
X0068931Y0227253D01*
X0069052Y0227222D01*
X0069172Y0227186D01*
X0069291Y0227147D01*
X0069408Y0227105D01*
X0069524Y0227058D01*
X0069638Y0227008D01*
X0069751Y0226955D01*
X0069862Y0226897D01*
X0069972Y0226837D01*
X0070079Y0226772D01*
X0070184Y0226705D01*
X0070287Y0226634D01*
X0070387Y0226560D01*
X0070485Y0226483D01*
X0070581Y0226402D01*
X0070674Y0226319D01*
X0070765Y0226233D01*
X0070852Y0226144D01*
X0070937Y0226052D01*
X0071019Y0225958D01*
X0071098Y0225861D01*
X0071173Y0225761D01*
X0071246Y0225660D01*
X0071315Y0225556D01*
X0071381Y0225449D01*
X0071443Y0225341D01*
X0071502Y0225231D01*
X0071558Y0225119D01*
X0071610Y0225005D01*
X0071658Y0224890D01*
X0071703Y0224774D01*
X0071743Y0224655D01*
X0071781Y0224536D01*
X0071814Y0224416D01*
X0071843Y0224294D01*
X0071869Y0224172D01*
X0071891Y0224049D01*
X0071908Y0223925D01*
X0071922Y0223801D01*
X0071932Y0223677D01*
X0071938Y0223552D01*
X0071940Y0223427D01*
X0071938Y0223302D01*
X0071932Y0223177D01*
X0071922Y0223053D01*
X0071908Y0222929D01*
X0071891Y0222805D01*
X0071869Y0222682D01*
X0071843Y0222560D01*
X0071814Y0222438D01*
X0071781Y0222318D01*
X0071743Y0222199D01*
X0071703Y0222080D01*
X0071658Y0221964D01*
X0071610Y0221849D01*
X0071558Y0221735D01*
X0071502Y0221623D01*
X0071443Y0221513D01*
X0071381Y0221405D01*
X0071315Y0221298D01*
X0071246Y0221194D01*
X0071173Y0221093D01*
X0071098Y0220993D01*
X0071019Y0220896D01*
X0070937Y0220802D01*
X0070852Y0220710D01*
X0070765Y0220621D01*
X0070674Y0220535D01*
X0070581Y0220452D01*
X0070485Y0220371D01*
X0070387Y0220294D01*
X0070287Y0220220D01*
X0070184Y0220149D01*
X0070079Y0220082D01*
X0069971Y0220017D01*
X0069862Y0219957D01*
X0069751Y0219899D01*
X0069638Y0219846D01*
X0069524Y0219796D01*
X0069408Y0219749D01*
X0069291Y0219707D01*
X0069172Y0219668D01*
X0069052Y0219632D01*
X0068931Y0219601D01*
X0068809Y0219573D01*
X0068687Y0219550D01*
X0068563Y0219530D01*
X0068439Y0219514D01*
X0068315Y0219502D01*
X0068190Y0219494D01*
X0068065Y0219490D01*
X0067941Y0219490D01*
X0067816Y0219494D01*
X0067691Y0219502D01*
X0067567Y0219514D01*
X0067443Y0219530D01*
X0067319Y0219550D01*
X0067197Y0219573D01*
X0067075Y0219601D01*
X0066954Y0219632D01*
X0066834Y0219668D01*
X0066715Y0219707D01*
X0066598Y0219749D01*
X0066482Y0219796D01*
X0066368Y0219846D01*
X0066255Y0219899D01*
X0066144Y0219957D01*
X0066034Y0220017D01*
X0065927Y0220082D01*
X0065822Y0220149D01*
X0065719Y0220220D01*
X0065619Y0220294D01*
X0065521Y0220371D01*
X0065425Y0220452D01*
X0065332Y0220535D01*
X0065241Y0220621D01*
X0065154Y0220710D01*
X0065069Y0220802D01*
X0064987Y0220896D01*
X0064908Y0220993D01*
X0064833Y0221093D01*
X0064760Y0221194D01*
X0064691Y0221298D01*
X0064625Y0221405D01*
X0064563Y0221513D01*
X0064504Y0221623D01*
X0064448Y0221735D01*
X0064396Y0221849D01*
X0064348Y0221964D01*
X0064303Y0222080D01*
X0064263Y0222199D01*
X0064225Y0222318D01*
X0064192Y0222438D01*
X0064163Y0222560D01*
X0064137Y0222682D01*
X0064115Y0222805D01*
X0064098Y0222929D01*
X0064084Y0223053D01*
X0064074Y0223177D01*
X0064068Y0223302D01*
X0064066Y0223427D01*
X0019775Y0317915D02*
X0019777Y0318040D01*
X0019783Y0318165D01*
X0019793Y0318289D01*
X0019807Y0318413D01*
X0019824Y0318537D01*
X0019846Y0318660D01*
X0019872Y0318782D01*
X0019901Y0318904D01*
X0019934Y0319024D01*
X0019972Y0319143D01*
X0020012Y0319262D01*
X0020057Y0319378D01*
X0020105Y0319493D01*
X0020157Y0319607D01*
X0020213Y0319719D01*
X0020272Y0319829D01*
X0020334Y0319937D01*
X0020400Y0320044D01*
X0020469Y0320148D01*
X0020542Y0320249D01*
X0020617Y0320349D01*
X0020696Y0320446D01*
X0020778Y0320540D01*
X0020863Y0320632D01*
X0020950Y0320721D01*
X0021041Y0320807D01*
X0021134Y0320890D01*
X0021230Y0320971D01*
X0021328Y0321048D01*
X0021428Y0321122D01*
X0021531Y0321193D01*
X0021636Y0321260D01*
X0021744Y0321325D01*
X0021853Y0321385D01*
X0021964Y0321443D01*
X0022077Y0321496D01*
X0022191Y0321546D01*
X0022307Y0321593D01*
X0022424Y0321635D01*
X0022543Y0321674D01*
X0022663Y0321710D01*
X0022784Y0321741D01*
X0022906Y0321769D01*
X0023028Y0321792D01*
X0023152Y0321812D01*
X0023276Y0321828D01*
X0023400Y0321840D01*
X0023525Y0321848D01*
X0023650Y0321852D01*
X0023774Y0321852D01*
X0023899Y0321848D01*
X0024024Y0321840D01*
X0024148Y0321828D01*
X0024272Y0321812D01*
X0024396Y0321792D01*
X0024518Y0321769D01*
X0024640Y0321741D01*
X0024761Y0321710D01*
X0024881Y0321674D01*
X0025000Y0321635D01*
X0025117Y0321593D01*
X0025233Y0321546D01*
X0025347Y0321496D01*
X0025460Y0321443D01*
X0025571Y0321385D01*
X0025681Y0321325D01*
X0025788Y0321260D01*
X0025893Y0321193D01*
X0025996Y0321122D01*
X0026096Y0321048D01*
X0026194Y0320971D01*
X0026290Y0320890D01*
X0026383Y0320807D01*
X0026474Y0320721D01*
X0026561Y0320632D01*
X0026646Y0320540D01*
X0026728Y0320446D01*
X0026807Y0320349D01*
X0026882Y0320249D01*
X0026955Y0320148D01*
X0027024Y0320044D01*
X0027090Y0319937D01*
X0027152Y0319829D01*
X0027211Y0319719D01*
X0027267Y0319607D01*
X0027319Y0319493D01*
X0027367Y0319378D01*
X0027412Y0319262D01*
X0027452Y0319143D01*
X0027490Y0319024D01*
X0027523Y0318904D01*
X0027552Y0318782D01*
X0027578Y0318660D01*
X0027600Y0318537D01*
X0027617Y0318413D01*
X0027631Y0318289D01*
X0027641Y0318165D01*
X0027647Y0318040D01*
X0027649Y0317915D01*
X0027647Y0317790D01*
X0027641Y0317665D01*
X0027631Y0317541D01*
X0027617Y0317417D01*
X0027600Y0317293D01*
X0027578Y0317170D01*
X0027552Y0317048D01*
X0027523Y0316926D01*
X0027490Y0316806D01*
X0027452Y0316687D01*
X0027412Y0316568D01*
X0027367Y0316452D01*
X0027319Y0316337D01*
X0027267Y0316223D01*
X0027211Y0316111D01*
X0027152Y0316001D01*
X0027090Y0315893D01*
X0027024Y0315786D01*
X0026955Y0315682D01*
X0026882Y0315581D01*
X0026807Y0315481D01*
X0026728Y0315384D01*
X0026646Y0315290D01*
X0026561Y0315198D01*
X0026474Y0315109D01*
X0026383Y0315023D01*
X0026290Y0314940D01*
X0026194Y0314859D01*
X0026096Y0314782D01*
X0025996Y0314708D01*
X0025893Y0314637D01*
X0025788Y0314570D01*
X0025680Y0314505D01*
X0025571Y0314445D01*
X0025460Y0314387D01*
X0025347Y0314334D01*
X0025233Y0314284D01*
X0025117Y0314237D01*
X0025000Y0314195D01*
X0024881Y0314156D01*
X0024761Y0314120D01*
X0024640Y0314089D01*
X0024518Y0314061D01*
X0024396Y0314038D01*
X0024272Y0314018D01*
X0024148Y0314002D01*
X0024024Y0313990D01*
X0023899Y0313982D01*
X0023774Y0313978D01*
X0023650Y0313978D01*
X0023525Y0313982D01*
X0023400Y0313990D01*
X0023276Y0314002D01*
X0023152Y0314018D01*
X0023028Y0314038D01*
X0022906Y0314061D01*
X0022784Y0314089D01*
X0022663Y0314120D01*
X0022543Y0314156D01*
X0022424Y0314195D01*
X0022307Y0314237D01*
X0022191Y0314284D01*
X0022077Y0314334D01*
X0021964Y0314387D01*
X0021853Y0314445D01*
X0021743Y0314505D01*
X0021636Y0314570D01*
X0021531Y0314637D01*
X0021428Y0314708D01*
X0021328Y0314782D01*
X0021230Y0314859D01*
X0021134Y0314940D01*
X0021041Y0315023D01*
X0020950Y0315109D01*
X0020863Y0315198D01*
X0020778Y0315290D01*
X0020696Y0315384D01*
X0020617Y0315481D01*
X0020542Y0315581D01*
X0020469Y0315682D01*
X0020400Y0315786D01*
X0020334Y0315893D01*
X0020272Y0316001D01*
X0020213Y0316111D01*
X0020157Y0316223D01*
X0020105Y0316337D01*
X0020057Y0316452D01*
X0020012Y0316568D01*
X0019972Y0316687D01*
X0019934Y0316806D01*
X0019901Y0316926D01*
X0019872Y0317048D01*
X0019846Y0317170D01*
X0019824Y0317293D01*
X0019807Y0317417D01*
X0019793Y0317541D01*
X0019783Y0317665D01*
X0019777Y0317790D01*
X0019775Y0317915D01*
X0059145Y0356892D02*
X0059147Y0357017D01*
X0059153Y0357142D01*
X0059163Y0357266D01*
X0059177Y0357390D01*
X0059194Y0357514D01*
X0059216Y0357637D01*
X0059242Y0357759D01*
X0059271Y0357881D01*
X0059304Y0358001D01*
X0059342Y0358120D01*
X0059382Y0358239D01*
X0059427Y0358355D01*
X0059475Y0358470D01*
X0059527Y0358584D01*
X0059583Y0358696D01*
X0059642Y0358806D01*
X0059704Y0358914D01*
X0059770Y0359021D01*
X0059839Y0359125D01*
X0059912Y0359226D01*
X0059987Y0359326D01*
X0060066Y0359423D01*
X0060148Y0359517D01*
X0060233Y0359609D01*
X0060320Y0359698D01*
X0060411Y0359784D01*
X0060504Y0359867D01*
X0060600Y0359948D01*
X0060698Y0360025D01*
X0060798Y0360099D01*
X0060901Y0360170D01*
X0061006Y0360237D01*
X0061114Y0360302D01*
X0061223Y0360362D01*
X0061334Y0360420D01*
X0061447Y0360473D01*
X0061561Y0360523D01*
X0061677Y0360570D01*
X0061794Y0360612D01*
X0061913Y0360651D01*
X0062033Y0360687D01*
X0062154Y0360718D01*
X0062276Y0360746D01*
X0062398Y0360769D01*
X0062522Y0360789D01*
X0062646Y0360805D01*
X0062770Y0360817D01*
X0062895Y0360825D01*
X0063020Y0360829D01*
X0063144Y0360829D01*
X0063269Y0360825D01*
X0063394Y0360817D01*
X0063518Y0360805D01*
X0063642Y0360789D01*
X0063766Y0360769D01*
X0063888Y0360746D01*
X0064010Y0360718D01*
X0064131Y0360687D01*
X0064251Y0360651D01*
X0064370Y0360612D01*
X0064487Y0360570D01*
X0064603Y0360523D01*
X0064717Y0360473D01*
X0064830Y0360420D01*
X0064941Y0360362D01*
X0065051Y0360302D01*
X0065158Y0360237D01*
X0065263Y0360170D01*
X0065366Y0360099D01*
X0065466Y0360025D01*
X0065564Y0359948D01*
X0065660Y0359867D01*
X0065753Y0359784D01*
X0065844Y0359698D01*
X0065931Y0359609D01*
X0066016Y0359517D01*
X0066098Y0359423D01*
X0066177Y0359326D01*
X0066252Y0359226D01*
X0066325Y0359125D01*
X0066394Y0359021D01*
X0066460Y0358914D01*
X0066522Y0358806D01*
X0066581Y0358696D01*
X0066637Y0358584D01*
X0066689Y0358470D01*
X0066737Y0358355D01*
X0066782Y0358239D01*
X0066822Y0358120D01*
X0066860Y0358001D01*
X0066893Y0357881D01*
X0066922Y0357759D01*
X0066948Y0357637D01*
X0066970Y0357514D01*
X0066987Y0357390D01*
X0067001Y0357266D01*
X0067011Y0357142D01*
X0067017Y0357017D01*
X0067019Y0356892D01*
X0067017Y0356767D01*
X0067011Y0356642D01*
X0067001Y0356518D01*
X0066987Y0356394D01*
X0066970Y0356270D01*
X0066948Y0356147D01*
X0066922Y0356025D01*
X0066893Y0355903D01*
X0066860Y0355783D01*
X0066822Y0355664D01*
X0066782Y0355545D01*
X0066737Y0355429D01*
X0066689Y0355314D01*
X0066637Y0355200D01*
X0066581Y0355088D01*
X0066522Y0354978D01*
X0066460Y0354870D01*
X0066394Y0354763D01*
X0066325Y0354659D01*
X0066252Y0354558D01*
X0066177Y0354458D01*
X0066098Y0354361D01*
X0066016Y0354267D01*
X0065931Y0354175D01*
X0065844Y0354086D01*
X0065753Y0354000D01*
X0065660Y0353917D01*
X0065564Y0353836D01*
X0065466Y0353759D01*
X0065366Y0353685D01*
X0065263Y0353614D01*
X0065158Y0353547D01*
X0065050Y0353482D01*
X0064941Y0353422D01*
X0064830Y0353364D01*
X0064717Y0353311D01*
X0064603Y0353261D01*
X0064487Y0353214D01*
X0064370Y0353172D01*
X0064251Y0353133D01*
X0064131Y0353097D01*
X0064010Y0353066D01*
X0063888Y0353038D01*
X0063766Y0353015D01*
X0063642Y0352995D01*
X0063518Y0352979D01*
X0063394Y0352967D01*
X0063269Y0352959D01*
X0063144Y0352955D01*
X0063020Y0352955D01*
X0062895Y0352959D01*
X0062770Y0352967D01*
X0062646Y0352979D01*
X0062522Y0352995D01*
X0062398Y0353015D01*
X0062276Y0353038D01*
X0062154Y0353066D01*
X0062033Y0353097D01*
X0061913Y0353133D01*
X0061794Y0353172D01*
X0061677Y0353214D01*
X0061561Y0353261D01*
X0061447Y0353311D01*
X0061334Y0353364D01*
X0061223Y0353422D01*
X0061113Y0353482D01*
X0061006Y0353547D01*
X0060901Y0353614D01*
X0060798Y0353685D01*
X0060698Y0353759D01*
X0060600Y0353836D01*
X0060504Y0353917D01*
X0060411Y0354000D01*
X0060320Y0354086D01*
X0060233Y0354175D01*
X0060148Y0354267D01*
X0060066Y0354361D01*
X0059987Y0354458D01*
X0059912Y0354558D01*
X0059839Y0354659D01*
X0059770Y0354763D01*
X0059704Y0354870D01*
X0059642Y0354978D01*
X0059583Y0355088D01*
X0059527Y0355200D01*
X0059475Y0355314D01*
X0059427Y0355429D01*
X0059382Y0355545D01*
X0059342Y0355664D01*
X0059304Y0355783D01*
X0059271Y0355903D01*
X0059242Y0356025D01*
X0059216Y0356147D01*
X0059194Y0356270D01*
X0059177Y0356394D01*
X0059163Y0356518D01*
X0059153Y0356642D01*
X0059147Y0356767D01*
X0059145Y0356892D01*
X0083554Y0384845D02*
X0083556Y0384970D01*
X0083562Y0385095D01*
X0083572Y0385219D01*
X0083586Y0385343D01*
X0083603Y0385467D01*
X0083625Y0385590D01*
X0083651Y0385712D01*
X0083680Y0385834D01*
X0083713Y0385954D01*
X0083751Y0386073D01*
X0083791Y0386192D01*
X0083836Y0386308D01*
X0083884Y0386423D01*
X0083936Y0386537D01*
X0083992Y0386649D01*
X0084051Y0386759D01*
X0084113Y0386867D01*
X0084179Y0386974D01*
X0084248Y0387078D01*
X0084321Y0387179D01*
X0084396Y0387279D01*
X0084475Y0387376D01*
X0084557Y0387470D01*
X0084642Y0387562D01*
X0084729Y0387651D01*
X0084820Y0387737D01*
X0084913Y0387820D01*
X0085009Y0387901D01*
X0085107Y0387978D01*
X0085207Y0388052D01*
X0085310Y0388123D01*
X0085415Y0388190D01*
X0085523Y0388255D01*
X0085632Y0388315D01*
X0085743Y0388373D01*
X0085856Y0388426D01*
X0085970Y0388476D01*
X0086086Y0388523D01*
X0086203Y0388565D01*
X0086322Y0388604D01*
X0086442Y0388640D01*
X0086563Y0388671D01*
X0086685Y0388699D01*
X0086807Y0388722D01*
X0086931Y0388742D01*
X0087055Y0388758D01*
X0087179Y0388770D01*
X0087304Y0388778D01*
X0087429Y0388782D01*
X0087553Y0388782D01*
X0087678Y0388778D01*
X0087803Y0388770D01*
X0087927Y0388758D01*
X0088051Y0388742D01*
X0088175Y0388722D01*
X0088297Y0388699D01*
X0088419Y0388671D01*
X0088540Y0388640D01*
X0088660Y0388604D01*
X0088779Y0388565D01*
X0088896Y0388523D01*
X0089012Y0388476D01*
X0089126Y0388426D01*
X0089239Y0388373D01*
X0089350Y0388315D01*
X0089460Y0388255D01*
X0089567Y0388190D01*
X0089672Y0388123D01*
X0089775Y0388052D01*
X0089875Y0387978D01*
X0089973Y0387901D01*
X0090069Y0387820D01*
X0090162Y0387737D01*
X0090253Y0387651D01*
X0090340Y0387562D01*
X0090425Y0387470D01*
X0090507Y0387376D01*
X0090586Y0387279D01*
X0090661Y0387179D01*
X0090734Y0387078D01*
X0090803Y0386974D01*
X0090869Y0386867D01*
X0090931Y0386759D01*
X0090990Y0386649D01*
X0091046Y0386537D01*
X0091098Y0386423D01*
X0091146Y0386308D01*
X0091191Y0386192D01*
X0091231Y0386073D01*
X0091269Y0385954D01*
X0091302Y0385834D01*
X0091331Y0385712D01*
X0091357Y0385590D01*
X0091379Y0385467D01*
X0091396Y0385343D01*
X0091410Y0385219D01*
X0091420Y0385095D01*
X0091426Y0384970D01*
X0091428Y0384845D01*
X0091426Y0384720D01*
X0091420Y0384595D01*
X0091410Y0384471D01*
X0091396Y0384347D01*
X0091379Y0384223D01*
X0091357Y0384100D01*
X0091331Y0383978D01*
X0091302Y0383856D01*
X0091269Y0383736D01*
X0091231Y0383617D01*
X0091191Y0383498D01*
X0091146Y0383382D01*
X0091098Y0383267D01*
X0091046Y0383153D01*
X0090990Y0383041D01*
X0090931Y0382931D01*
X0090869Y0382823D01*
X0090803Y0382716D01*
X0090734Y0382612D01*
X0090661Y0382511D01*
X0090586Y0382411D01*
X0090507Y0382314D01*
X0090425Y0382220D01*
X0090340Y0382128D01*
X0090253Y0382039D01*
X0090162Y0381953D01*
X0090069Y0381870D01*
X0089973Y0381789D01*
X0089875Y0381712D01*
X0089775Y0381638D01*
X0089672Y0381567D01*
X0089567Y0381500D01*
X0089459Y0381435D01*
X0089350Y0381375D01*
X0089239Y0381317D01*
X0089126Y0381264D01*
X0089012Y0381214D01*
X0088896Y0381167D01*
X0088779Y0381125D01*
X0088660Y0381086D01*
X0088540Y0381050D01*
X0088419Y0381019D01*
X0088297Y0380991D01*
X0088175Y0380968D01*
X0088051Y0380948D01*
X0087927Y0380932D01*
X0087803Y0380920D01*
X0087678Y0380912D01*
X0087553Y0380908D01*
X0087429Y0380908D01*
X0087304Y0380912D01*
X0087179Y0380920D01*
X0087055Y0380932D01*
X0086931Y0380948D01*
X0086807Y0380968D01*
X0086685Y0380991D01*
X0086563Y0381019D01*
X0086442Y0381050D01*
X0086322Y0381086D01*
X0086203Y0381125D01*
X0086086Y0381167D01*
X0085970Y0381214D01*
X0085856Y0381264D01*
X0085743Y0381317D01*
X0085632Y0381375D01*
X0085522Y0381435D01*
X0085415Y0381500D01*
X0085310Y0381567D01*
X0085207Y0381638D01*
X0085107Y0381712D01*
X0085009Y0381789D01*
X0084913Y0381870D01*
X0084820Y0381953D01*
X0084729Y0382039D01*
X0084642Y0382128D01*
X0084557Y0382220D01*
X0084475Y0382314D01*
X0084396Y0382411D01*
X0084321Y0382511D01*
X0084248Y0382612D01*
X0084179Y0382716D01*
X0084113Y0382823D01*
X0084051Y0382931D01*
X0083992Y0383041D01*
X0083936Y0383153D01*
X0083884Y0383267D01*
X0083836Y0383382D01*
X0083791Y0383498D01*
X0083751Y0383617D01*
X0083713Y0383736D01*
X0083680Y0383856D01*
X0083651Y0383978D01*
X0083625Y0384100D01*
X0083603Y0384223D01*
X0083586Y0384347D01*
X0083572Y0384471D01*
X0083562Y0384595D01*
X0083556Y0384720D01*
X0083554Y0384845D01*
X0138672Y0384845D02*
X0138674Y0384970D01*
X0138680Y0385095D01*
X0138690Y0385219D01*
X0138704Y0385343D01*
X0138721Y0385467D01*
X0138743Y0385590D01*
X0138769Y0385712D01*
X0138798Y0385834D01*
X0138831Y0385954D01*
X0138869Y0386073D01*
X0138909Y0386192D01*
X0138954Y0386308D01*
X0139002Y0386423D01*
X0139054Y0386537D01*
X0139110Y0386649D01*
X0139169Y0386759D01*
X0139231Y0386867D01*
X0139297Y0386974D01*
X0139366Y0387078D01*
X0139439Y0387179D01*
X0139514Y0387279D01*
X0139593Y0387376D01*
X0139675Y0387470D01*
X0139760Y0387562D01*
X0139847Y0387651D01*
X0139938Y0387737D01*
X0140031Y0387820D01*
X0140127Y0387901D01*
X0140225Y0387978D01*
X0140325Y0388052D01*
X0140428Y0388123D01*
X0140533Y0388190D01*
X0140641Y0388255D01*
X0140750Y0388315D01*
X0140861Y0388373D01*
X0140974Y0388426D01*
X0141088Y0388476D01*
X0141204Y0388523D01*
X0141321Y0388565D01*
X0141440Y0388604D01*
X0141560Y0388640D01*
X0141681Y0388671D01*
X0141803Y0388699D01*
X0141925Y0388722D01*
X0142049Y0388742D01*
X0142173Y0388758D01*
X0142297Y0388770D01*
X0142422Y0388778D01*
X0142547Y0388782D01*
X0142671Y0388782D01*
X0142796Y0388778D01*
X0142921Y0388770D01*
X0143045Y0388758D01*
X0143169Y0388742D01*
X0143293Y0388722D01*
X0143415Y0388699D01*
X0143537Y0388671D01*
X0143658Y0388640D01*
X0143778Y0388604D01*
X0143897Y0388565D01*
X0144014Y0388523D01*
X0144130Y0388476D01*
X0144244Y0388426D01*
X0144357Y0388373D01*
X0144468Y0388315D01*
X0144578Y0388255D01*
X0144685Y0388190D01*
X0144790Y0388123D01*
X0144893Y0388052D01*
X0144993Y0387978D01*
X0145091Y0387901D01*
X0145187Y0387820D01*
X0145280Y0387737D01*
X0145371Y0387651D01*
X0145458Y0387562D01*
X0145543Y0387470D01*
X0145625Y0387376D01*
X0145704Y0387279D01*
X0145779Y0387179D01*
X0145852Y0387078D01*
X0145921Y0386974D01*
X0145987Y0386867D01*
X0146049Y0386759D01*
X0146108Y0386649D01*
X0146164Y0386537D01*
X0146216Y0386423D01*
X0146264Y0386308D01*
X0146309Y0386192D01*
X0146349Y0386073D01*
X0146387Y0385954D01*
X0146420Y0385834D01*
X0146449Y0385712D01*
X0146475Y0385590D01*
X0146497Y0385467D01*
X0146514Y0385343D01*
X0146528Y0385219D01*
X0146538Y0385095D01*
X0146544Y0384970D01*
X0146546Y0384845D01*
X0146544Y0384720D01*
X0146538Y0384595D01*
X0146528Y0384471D01*
X0146514Y0384347D01*
X0146497Y0384223D01*
X0146475Y0384100D01*
X0146449Y0383978D01*
X0146420Y0383856D01*
X0146387Y0383736D01*
X0146349Y0383617D01*
X0146309Y0383498D01*
X0146264Y0383382D01*
X0146216Y0383267D01*
X0146164Y0383153D01*
X0146108Y0383041D01*
X0146049Y0382931D01*
X0145987Y0382823D01*
X0145921Y0382716D01*
X0145852Y0382612D01*
X0145779Y0382511D01*
X0145704Y0382411D01*
X0145625Y0382314D01*
X0145543Y0382220D01*
X0145458Y0382128D01*
X0145371Y0382039D01*
X0145280Y0381953D01*
X0145187Y0381870D01*
X0145091Y0381789D01*
X0144993Y0381712D01*
X0144893Y0381638D01*
X0144790Y0381567D01*
X0144685Y0381500D01*
X0144577Y0381435D01*
X0144468Y0381375D01*
X0144357Y0381317D01*
X0144244Y0381264D01*
X0144130Y0381214D01*
X0144014Y0381167D01*
X0143897Y0381125D01*
X0143778Y0381086D01*
X0143658Y0381050D01*
X0143537Y0381019D01*
X0143415Y0380991D01*
X0143293Y0380968D01*
X0143169Y0380948D01*
X0143045Y0380932D01*
X0142921Y0380920D01*
X0142796Y0380912D01*
X0142671Y0380908D01*
X0142547Y0380908D01*
X0142422Y0380912D01*
X0142297Y0380920D01*
X0142173Y0380932D01*
X0142049Y0380948D01*
X0141925Y0380968D01*
X0141803Y0380991D01*
X0141681Y0381019D01*
X0141560Y0381050D01*
X0141440Y0381086D01*
X0141321Y0381125D01*
X0141204Y0381167D01*
X0141088Y0381214D01*
X0140974Y0381264D01*
X0140861Y0381317D01*
X0140750Y0381375D01*
X0140640Y0381435D01*
X0140533Y0381500D01*
X0140428Y0381567D01*
X0140325Y0381638D01*
X0140225Y0381712D01*
X0140127Y0381789D01*
X0140031Y0381870D01*
X0139938Y0381953D01*
X0139847Y0382039D01*
X0139760Y0382128D01*
X0139675Y0382220D01*
X0139593Y0382314D01*
X0139514Y0382411D01*
X0139439Y0382511D01*
X0139366Y0382612D01*
X0139297Y0382716D01*
X0139231Y0382823D01*
X0139169Y0382931D01*
X0139110Y0383041D01*
X0139054Y0383153D01*
X0139002Y0383267D01*
X0138954Y0383382D01*
X0138909Y0383498D01*
X0138869Y0383617D01*
X0138831Y0383736D01*
X0138798Y0383856D01*
X0138769Y0383978D01*
X0138743Y0384100D01*
X0138721Y0384223D01*
X0138704Y0384347D01*
X0138690Y0384471D01*
X0138680Y0384595D01*
X0138674Y0384720D01*
X0138672Y0384845D01*
X0255208Y0384845D02*
X0255210Y0384970D01*
X0255216Y0385095D01*
X0255226Y0385219D01*
X0255240Y0385343D01*
X0255257Y0385467D01*
X0255279Y0385590D01*
X0255305Y0385712D01*
X0255334Y0385834D01*
X0255367Y0385954D01*
X0255405Y0386073D01*
X0255445Y0386192D01*
X0255490Y0386308D01*
X0255538Y0386423D01*
X0255590Y0386537D01*
X0255646Y0386649D01*
X0255705Y0386759D01*
X0255767Y0386867D01*
X0255833Y0386974D01*
X0255902Y0387078D01*
X0255975Y0387179D01*
X0256050Y0387279D01*
X0256129Y0387376D01*
X0256211Y0387470D01*
X0256296Y0387562D01*
X0256383Y0387651D01*
X0256474Y0387737D01*
X0256567Y0387820D01*
X0256663Y0387901D01*
X0256761Y0387978D01*
X0256861Y0388052D01*
X0256964Y0388123D01*
X0257069Y0388190D01*
X0257177Y0388255D01*
X0257286Y0388315D01*
X0257397Y0388373D01*
X0257510Y0388426D01*
X0257624Y0388476D01*
X0257740Y0388523D01*
X0257857Y0388565D01*
X0257976Y0388604D01*
X0258096Y0388640D01*
X0258217Y0388671D01*
X0258339Y0388699D01*
X0258461Y0388722D01*
X0258585Y0388742D01*
X0258709Y0388758D01*
X0258833Y0388770D01*
X0258958Y0388778D01*
X0259083Y0388782D01*
X0259207Y0388782D01*
X0259332Y0388778D01*
X0259457Y0388770D01*
X0259581Y0388758D01*
X0259705Y0388742D01*
X0259829Y0388722D01*
X0259951Y0388699D01*
X0260073Y0388671D01*
X0260194Y0388640D01*
X0260314Y0388604D01*
X0260433Y0388565D01*
X0260550Y0388523D01*
X0260666Y0388476D01*
X0260780Y0388426D01*
X0260893Y0388373D01*
X0261004Y0388315D01*
X0261114Y0388255D01*
X0261221Y0388190D01*
X0261326Y0388123D01*
X0261429Y0388052D01*
X0261529Y0387978D01*
X0261627Y0387901D01*
X0261723Y0387820D01*
X0261816Y0387737D01*
X0261907Y0387651D01*
X0261994Y0387562D01*
X0262079Y0387470D01*
X0262161Y0387376D01*
X0262240Y0387279D01*
X0262315Y0387179D01*
X0262388Y0387078D01*
X0262457Y0386974D01*
X0262523Y0386867D01*
X0262585Y0386759D01*
X0262644Y0386649D01*
X0262700Y0386537D01*
X0262752Y0386423D01*
X0262800Y0386308D01*
X0262845Y0386192D01*
X0262885Y0386073D01*
X0262923Y0385954D01*
X0262956Y0385834D01*
X0262985Y0385712D01*
X0263011Y0385590D01*
X0263033Y0385467D01*
X0263050Y0385343D01*
X0263064Y0385219D01*
X0263074Y0385095D01*
X0263080Y0384970D01*
X0263082Y0384845D01*
X0263080Y0384720D01*
X0263074Y0384595D01*
X0263064Y0384471D01*
X0263050Y0384347D01*
X0263033Y0384223D01*
X0263011Y0384100D01*
X0262985Y0383978D01*
X0262956Y0383856D01*
X0262923Y0383736D01*
X0262885Y0383617D01*
X0262845Y0383498D01*
X0262800Y0383382D01*
X0262752Y0383267D01*
X0262700Y0383153D01*
X0262644Y0383041D01*
X0262585Y0382931D01*
X0262523Y0382823D01*
X0262457Y0382716D01*
X0262388Y0382612D01*
X0262315Y0382511D01*
X0262240Y0382411D01*
X0262161Y0382314D01*
X0262079Y0382220D01*
X0261994Y0382128D01*
X0261907Y0382039D01*
X0261816Y0381953D01*
X0261723Y0381870D01*
X0261627Y0381789D01*
X0261529Y0381712D01*
X0261429Y0381638D01*
X0261326Y0381567D01*
X0261221Y0381500D01*
X0261113Y0381435D01*
X0261004Y0381375D01*
X0260893Y0381317D01*
X0260780Y0381264D01*
X0260666Y0381214D01*
X0260550Y0381167D01*
X0260433Y0381125D01*
X0260314Y0381086D01*
X0260194Y0381050D01*
X0260073Y0381019D01*
X0259951Y0380991D01*
X0259829Y0380968D01*
X0259705Y0380948D01*
X0259581Y0380932D01*
X0259457Y0380920D01*
X0259332Y0380912D01*
X0259207Y0380908D01*
X0259083Y0380908D01*
X0258958Y0380912D01*
X0258833Y0380920D01*
X0258709Y0380932D01*
X0258585Y0380948D01*
X0258461Y0380968D01*
X0258339Y0380991D01*
X0258217Y0381019D01*
X0258096Y0381050D01*
X0257976Y0381086D01*
X0257857Y0381125D01*
X0257740Y0381167D01*
X0257624Y0381214D01*
X0257510Y0381264D01*
X0257397Y0381317D01*
X0257286Y0381375D01*
X0257176Y0381435D01*
X0257069Y0381500D01*
X0256964Y0381567D01*
X0256861Y0381638D01*
X0256761Y0381712D01*
X0256663Y0381789D01*
X0256567Y0381870D01*
X0256474Y0381953D01*
X0256383Y0382039D01*
X0256296Y0382128D01*
X0256211Y0382220D01*
X0256129Y0382314D01*
X0256050Y0382411D01*
X0255975Y0382511D01*
X0255902Y0382612D01*
X0255833Y0382716D01*
X0255767Y0382823D01*
X0255705Y0382931D01*
X0255646Y0383041D01*
X0255590Y0383153D01*
X0255538Y0383267D01*
X0255490Y0383382D01*
X0255445Y0383498D01*
X0255405Y0383617D01*
X0255367Y0383736D01*
X0255334Y0383856D01*
X0255305Y0383978D01*
X0255279Y0384100D01*
X0255257Y0384223D01*
X0255240Y0384347D01*
X0255226Y0384471D01*
X0255216Y0384595D01*
X0255210Y0384720D01*
X0255208Y0384845D01*
X0310326Y0384845D02*
X0310328Y0384970D01*
X0310334Y0385095D01*
X0310344Y0385219D01*
X0310358Y0385343D01*
X0310375Y0385467D01*
X0310397Y0385590D01*
X0310423Y0385712D01*
X0310452Y0385834D01*
X0310485Y0385954D01*
X0310523Y0386073D01*
X0310563Y0386192D01*
X0310608Y0386308D01*
X0310656Y0386423D01*
X0310708Y0386537D01*
X0310764Y0386649D01*
X0310823Y0386759D01*
X0310885Y0386867D01*
X0310951Y0386974D01*
X0311020Y0387078D01*
X0311093Y0387179D01*
X0311168Y0387279D01*
X0311247Y0387376D01*
X0311329Y0387470D01*
X0311414Y0387562D01*
X0311501Y0387651D01*
X0311592Y0387737D01*
X0311685Y0387820D01*
X0311781Y0387901D01*
X0311879Y0387978D01*
X0311979Y0388052D01*
X0312082Y0388123D01*
X0312187Y0388190D01*
X0312295Y0388255D01*
X0312404Y0388315D01*
X0312515Y0388373D01*
X0312628Y0388426D01*
X0312742Y0388476D01*
X0312858Y0388523D01*
X0312975Y0388565D01*
X0313094Y0388604D01*
X0313214Y0388640D01*
X0313335Y0388671D01*
X0313457Y0388699D01*
X0313579Y0388722D01*
X0313703Y0388742D01*
X0313827Y0388758D01*
X0313951Y0388770D01*
X0314076Y0388778D01*
X0314201Y0388782D01*
X0314325Y0388782D01*
X0314450Y0388778D01*
X0314575Y0388770D01*
X0314699Y0388758D01*
X0314823Y0388742D01*
X0314947Y0388722D01*
X0315069Y0388699D01*
X0315191Y0388671D01*
X0315312Y0388640D01*
X0315432Y0388604D01*
X0315551Y0388565D01*
X0315668Y0388523D01*
X0315784Y0388476D01*
X0315898Y0388426D01*
X0316011Y0388373D01*
X0316122Y0388315D01*
X0316232Y0388255D01*
X0316339Y0388190D01*
X0316444Y0388123D01*
X0316547Y0388052D01*
X0316647Y0387978D01*
X0316745Y0387901D01*
X0316841Y0387820D01*
X0316934Y0387737D01*
X0317025Y0387651D01*
X0317112Y0387562D01*
X0317197Y0387470D01*
X0317279Y0387376D01*
X0317358Y0387279D01*
X0317433Y0387179D01*
X0317506Y0387078D01*
X0317575Y0386974D01*
X0317641Y0386867D01*
X0317703Y0386759D01*
X0317762Y0386649D01*
X0317818Y0386537D01*
X0317870Y0386423D01*
X0317918Y0386308D01*
X0317963Y0386192D01*
X0318003Y0386073D01*
X0318041Y0385954D01*
X0318074Y0385834D01*
X0318103Y0385712D01*
X0318129Y0385590D01*
X0318151Y0385467D01*
X0318168Y0385343D01*
X0318182Y0385219D01*
X0318192Y0385095D01*
X0318198Y0384970D01*
X0318200Y0384845D01*
X0318198Y0384720D01*
X0318192Y0384595D01*
X0318182Y0384471D01*
X0318168Y0384347D01*
X0318151Y0384223D01*
X0318129Y0384100D01*
X0318103Y0383978D01*
X0318074Y0383856D01*
X0318041Y0383736D01*
X0318003Y0383617D01*
X0317963Y0383498D01*
X0317918Y0383382D01*
X0317870Y0383267D01*
X0317818Y0383153D01*
X0317762Y0383041D01*
X0317703Y0382931D01*
X0317641Y0382823D01*
X0317575Y0382716D01*
X0317506Y0382612D01*
X0317433Y0382511D01*
X0317358Y0382411D01*
X0317279Y0382314D01*
X0317197Y0382220D01*
X0317112Y0382128D01*
X0317025Y0382039D01*
X0316934Y0381953D01*
X0316841Y0381870D01*
X0316745Y0381789D01*
X0316647Y0381712D01*
X0316547Y0381638D01*
X0316444Y0381567D01*
X0316339Y0381500D01*
X0316231Y0381435D01*
X0316122Y0381375D01*
X0316011Y0381317D01*
X0315898Y0381264D01*
X0315784Y0381214D01*
X0315668Y0381167D01*
X0315551Y0381125D01*
X0315432Y0381086D01*
X0315312Y0381050D01*
X0315191Y0381019D01*
X0315069Y0380991D01*
X0314947Y0380968D01*
X0314823Y0380948D01*
X0314699Y0380932D01*
X0314575Y0380920D01*
X0314450Y0380912D01*
X0314325Y0380908D01*
X0314201Y0380908D01*
X0314076Y0380912D01*
X0313951Y0380920D01*
X0313827Y0380932D01*
X0313703Y0380948D01*
X0313579Y0380968D01*
X0313457Y0380991D01*
X0313335Y0381019D01*
X0313214Y0381050D01*
X0313094Y0381086D01*
X0312975Y0381125D01*
X0312858Y0381167D01*
X0312742Y0381214D01*
X0312628Y0381264D01*
X0312515Y0381317D01*
X0312404Y0381375D01*
X0312294Y0381435D01*
X0312187Y0381500D01*
X0312082Y0381567D01*
X0311979Y0381638D01*
X0311879Y0381712D01*
X0311781Y0381789D01*
X0311685Y0381870D01*
X0311592Y0381953D01*
X0311501Y0382039D01*
X0311414Y0382128D01*
X0311329Y0382220D01*
X0311247Y0382314D01*
X0311168Y0382411D01*
X0311093Y0382511D01*
X0311020Y0382612D01*
X0310951Y0382716D01*
X0310885Y0382823D01*
X0310823Y0382931D01*
X0310764Y0383041D01*
X0310708Y0383153D01*
X0310656Y0383267D01*
X0310608Y0383382D01*
X0310563Y0383498D01*
X0310523Y0383617D01*
X0310485Y0383736D01*
X0310452Y0383856D01*
X0310423Y0383978D01*
X0310397Y0384100D01*
X0310375Y0384223D01*
X0310358Y0384347D01*
X0310344Y0384471D01*
X0310334Y0384595D01*
X0310328Y0384720D01*
X0310326Y0384845D01*
X0334735Y0356892D02*
X0334737Y0357017D01*
X0334743Y0357142D01*
X0334753Y0357266D01*
X0334767Y0357390D01*
X0334784Y0357514D01*
X0334806Y0357637D01*
X0334832Y0357759D01*
X0334861Y0357881D01*
X0334894Y0358001D01*
X0334932Y0358120D01*
X0334972Y0358239D01*
X0335017Y0358355D01*
X0335065Y0358470D01*
X0335117Y0358584D01*
X0335173Y0358696D01*
X0335232Y0358806D01*
X0335294Y0358914D01*
X0335360Y0359021D01*
X0335429Y0359125D01*
X0335502Y0359226D01*
X0335577Y0359326D01*
X0335656Y0359423D01*
X0335738Y0359517D01*
X0335823Y0359609D01*
X0335910Y0359698D01*
X0336001Y0359784D01*
X0336094Y0359867D01*
X0336190Y0359948D01*
X0336288Y0360025D01*
X0336388Y0360099D01*
X0336491Y0360170D01*
X0336596Y0360237D01*
X0336704Y0360302D01*
X0336813Y0360362D01*
X0336924Y0360420D01*
X0337037Y0360473D01*
X0337151Y0360523D01*
X0337267Y0360570D01*
X0337384Y0360612D01*
X0337503Y0360651D01*
X0337623Y0360687D01*
X0337744Y0360718D01*
X0337866Y0360746D01*
X0337988Y0360769D01*
X0338112Y0360789D01*
X0338236Y0360805D01*
X0338360Y0360817D01*
X0338485Y0360825D01*
X0338610Y0360829D01*
X0338734Y0360829D01*
X0338859Y0360825D01*
X0338984Y0360817D01*
X0339108Y0360805D01*
X0339232Y0360789D01*
X0339356Y0360769D01*
X0339478Y0360746D01*
X0339600Y0360718D01*
X0339721Y0360687D01*
X0339841Y0360651D01*
X0339960Y0360612D01*
X0340077Y0360570D01*
X0340193Y0360523D01*
X0340307Y0360473D01*
X0340420Y0360420D01*
X0340531Y0360362D01*
X0340641Y0360302D01*
X0340748Y0360237D01*
X0340853Y0360170D01*
X0340956Y0360099D01*
X0341056Y0360025D01*
X0341154Y0359948D01*
X0341250Y0359867D01*
X0341343Y0359784D01*
X0341434Y0359698D01*
X0341521Y0359609D01*
X0341606Y0359517D01*
X0341688Y0359423D01*
X0341767Y0359326D01*
X0341842Y0359226D01*
X0341915Y0359125D01*
X0341984Y0359021D01*
X0342050Y0358914D01*
X0342112Y0358806D01*
X0342171Y0358696D01*
X0342227Y0358584D01*
X0342279Y0358470D01*
X0342327Y0358355D01*
X0342372Y0358239D01*
X0342412Y0358120D01*
X0342450Y0358001D01*
X0342483Y0357881D01*
X0342512Y0357759D01*
X0342538Y0357637D01*
X0342560Y0357514D01*
X0342577Y0357390D01*
X0342591Y0357266D01*
X0342601Y0357142D01*
X0342607Y0357017D01*
X0342609Y0356892D01*
X0342607Y0356767D01*
X0342601Y0356642D01*
X0342591Y0356518D01*
X0342577Y0356394D01*
X0342560Y0356270D01*
X0342538Y0356147D01*
X0342512Y0356025D01*
X0342483Y0355903D01*
X0342450Y0355783D01*
X0342412Y0355664D01*
X0342372Y0355545D01*
X0342327Y0355429D01*
X0342279Y0355314D01*
X0342227Y0355200D01*
X0342171Y0355088D01*
X0342112Y0354978D01*
X0342050Y0354870D01*
X0341984Y0354763D01*
X0341915Y0354659D01*
X0341842Y0354558D01*
X0341767Y0354458D01*
X0341688Y0354361D01*
X0341606Y0354267D01*
X0341521Y0354175D01*
X0341434Y0354086D01*
X0341343Y0354000D01*
X0341250Y0353917D01*
X0341154Y0353836D01*
X0341056Y0353759D01*
X0340956Y0353685D01*
X0340853Y0353614D01*
X0340748Y0353547D01*
X0340640Y0353482D01*
X0340531Y0353422D01*
X0340420Y0353364D01*
X0340307Y0353311D01*
X0340193Y0353261D01*
X0340077Y0353214D01*
X0339960Y0353172D01*
X0339841Y0353133D01*
X0339721Y0353097D01*
X0339600Y0353066D01*
X0339478Y0353038D01*
X0339356Y0353015D01*
X0339232Y0352995D01*
X0339108Y0352979D01*
X0338984Y0352967D01*
X0338859Y0352959D01*
X0338734Y0352955D01*
X0338610Y0352955D01*
X0338485Y0352959D01*
X0338360Y0352967D01*
X0338236Y0352979D01*
X0338112Y0352995D01*
X0337988Y0353015D01*
X0337866Y0353038D01*
X0337744Y0353066D01*
X0337623Y0353097D01*
X0337503Y0353133D01*
X0337384Y0353172D01*
X0337267Y0353214D01*
X0337151Y0353261D01*
X0337037Y0353311D01*
X0336924Y0353364D01*
X0336813Y0353422D01*
X0336703Y0353482D01*
X0336596Y0353547D01*
X0336491Y0353614D01*
X0336388Y0353685D01*
X0336288Y0353759D01*
X0336190Y0353836D01*
X0336094Y0353917D01*
X0336001Y0354000D01*
X0335910Y0354086D01*
X0335823Y0354175D01*
X0335738Y0354267D01*
X0335656Y0354361D01*
X0335577Y0354458D01*
X0335502Y0354558D01*
X0335429Y0354659D01*
X0335360Y0354763D01*
X0335294Y0354870D01*
X0335232Y0354978D01*
X0335173Y0355088D01*
X0335117Y0355200D01*
X0335065Y0355314D01*
X0335017Y0355429D01*
X0334972Y0355545D01*
X0334932Y0355664D01*
X0334894Y0355783D01*
X0334861Y0355903D01*
X0334832Y0356025D01*
X0334806Y0356147D01*
X0334784Y0356270D01*
X0334767Y0356394D01*
X0334753Y0356518D01*
X0334743Y0356642D01*
X0334737Y0356767D01*
X0334735Y0356892D01*
X0374106Y0317915D02*
X0374108Y0318040D01*
X0374114Y0318165D01*
X0374124Y0318289D01*
X0374138Y0318413D01*
X0374155Y0318537D01*
X0374177Y0318660D01*
X0374203Y0318782D01*
X0374232Y0318904D01*
X0374265Y0319024D01*
X0374303Y0319143D01*
X0374343Y0319262D01*
X0374388Y0319378D01*
X0374436Y0319493D01*
X0374488Y0319607D01*
X0374544Y0319719D01*
X0374603Y0319829D01*
X0374665Y0319937D01*
X0374731Y0320044D01*
X0374800Y0320148D01*
X0374873Y0320249D01*
X0374948Y0320349D01*
X0375027Y0320446D01*
X0375109Y0320540D01*
X0375194Y0320632D01*
X0375281Y0320721D01*
X0375372Y0320807D01*
X0375465Y0320890D01*
X0375561Y0320971D01*
X0375659Y0321048D01*
X0375759Y0321122D01*
X0375862Y0321193D01*
X0375967Y0321260D01*
X0376075Y0321325D01*
X0376184Y0321385D01*
X0376295Y0321443D01*
X0376408Y0321496D01*
X0376522Y0321546D01*
X0376638Y0321593D01*
X0376755Y0321635D01*
X0376874Y0321674D01*
X0376994Y0321710D01*
X0377115Y0321741D01*
X0377237Y0321769D01*
X0377359Y0321792D01*
X0377483Y0321812D01*
X0377607Y0321828D01*
X0377731Y0321840D01*
X0377856Y0321848D01*
X0377981Y0321852D01*
X0378105Y0321852D01*
X0378230Y0321848D01*
X0378355Y0321840D01*
X0378479Y0321828D01*
X0378603Y0321812D01*
X0378727Y0321792D01*
X0378849Y0321769D01*
X0378971Y0321741D01*
X0379092Y0321710D01*
X0379212Y0321674D01*
X0379331Y0321635D01*
X0379448Y0321593D01*
X0379564Y0321546D01*
X0379678Y0321496D01*
X0379791Y0321443D01*
X0379902Y0321385D01*
X0380012Y0321325D01*
X0380119Y0321260D01*
X0380224Y0321193D01*
X0380327Y0321122D01*
X0380427Y0321048D01*
X0380525Y0320971D01*
X0380621Y0320890D01*
X0380714Y0320807D01*
X0380805Y0320721D01*
X0380892Y0320632D01*
X0380977Y0320540D01*
X0381059Y0320446D01*
X0381138Y0320349D01*
X0381213Y0320249D01*
X0381286Y0320148D01*
X0381355Y0320044D01*
X0381421Y0319937D01*
X0381483Y0319829D01*
X0381542Y0319719D01*
X0381598Y0319607D01*
X0381650Y0319493D01*
X0381698Y0319378D01*
X0381743Y0319262D01*
X0381783Y0319143D01*
X0381821Y0319024D01*
X0381854Y0318904D01*
X0381883Y0318782D01*
X0381909Y0318660D01*
X0381931Y0318537D01*
X0381948Y0318413D01*
X0381962Y0318289D01*
X0381972Y0318165D01*
X0381978Y0318040D01*
X0381980Y0317915D01*
X0381978Y0317790D01*
X0381972Y0317665D01*
X0381962Y0317541D01*
X0381948Y0317417D01*
X0381931Y0317293D01*
X0381909Y0317170D01*
X0381883Y0317048D01*
X0381854Y0316926D01*
X0381821Y0316806D01*
X0381783Y0316687D01*
X0381743Y0316568D01*
X0381698Y0316452D01*
X0381650Y0316337D01*
X0381598Y0316223D01*
X0381542Y0316111D01*
X0381483Y0316001D01*
X0381421Y0315893D01*
X0381355Y0315786D01*
X0381286Y0315682D01*
X0381213Y0315581D01*
X0381138Y0315481D01*
X0381059Y0315384D01*
X0380977Y0315290D01*
X0380892Y0315198D01*
X0380805Y0315109D01*
X0380714Y0315023D01*
X0380621Y0314940D01*
X0380525Y0314859D01*
X0380427Y0314782D01*
X0380327Y0314708D01*
X0380224Y0314637D01*
X0380119Y0314570D01*
X0380011Y0314505D01*
X0379902Y0314445D01*
X0379791Y0314387D01*
X0379678Y0314334D01*
X0379564Y0314284D01*
X0379448Y0314237D01*
X0379331Y0314195D01*
X0379212Y0314156D01*
X0379092Y0314120D01*
X0378971Y0314089D01*
X0378849Y0314061D01*
X0378727Y0314038D01*
X0378603Y0314018D01*
X0378479Y0314002D01*
X0378355Y0313990D01*
X0378230Y0313982D01*
X0378105Y0313978D01*
X0377981Y0313978D01*
X0377856Y0313982D01*
X0377731Y0313990D01*
X0377607Y0314002D01*
X0377483Y0314018D01*
X0377359Y0314038D01*
X0377237Y0314061D01*
X0377115Y0314089D01*
X0376994Y0314120D01*
X0376874Y0314156D01*
X0376755Y0314195D01*
X0376638Y0314237D01*
X0376522Y0314284D01*
X0376408Y0314334D01*
X0376295Y0314387D01*
X0376184Y0314445D01*
X0376074Y0314505D01*
X0375967Y0314570D01*
X0375862Y0314637D01*
X0375759Y0314708D01*
X0375659Y0314782D01*
X0375561Y0314859D01*
X0375465Y0314940D01*
X0375372Y0315023D01*
X0375281Y0315109D01*
X0375194Y0315198D01*
X0375109Y0315290D01*
X0375027Y0315384D01*
X0374948Y0315481D01*
X0374873Y0315581D01*
X0374800Y0315682D01*
X0374731Y0315786D01*
X0374665Y0315893D01*
X0374603Y0316001D01*
X0374544Y0316111D01*
X0374488Y0316223D01*
X0374436Y0316337D01*
X0374388Y0316452D01*
X0374343Y0316568D01*
X0374303Y0316687D01*
X0374265Y0316806D01*
X0374232Y0316926D01*
X0374203Y0317048D01*
X0374177Y0317170D01*
X0374155Y0317293D01*
X0374138Y0317417D01*
X0374124Y0317541D01*
X0374114Y0317665D01*
X0374108Y0317790D01*
X0374106Y0317915D01*
X0329814Y0223427D02*
X0329816Y0223552D01*
X0329822Y0223677D01*
X0329832Y0223801D01*
X0329846Y0223925D01*
X0329863Y0224049D01*
X0329885Y0224172D01*
X0329911Y0224294D01*
X0329940Y0224416D01*
X0329973Y0224536D01*
X0330011Y0224655D01*
X0330051Y0224774D01*
X0330096Y0224890D01*
X0330144Y0225005D01*
X0330196Y0225119D01*
X0330252Y0225231D01*
X0330311Y0225341D01*
X0330373Y0225449D01*
X0330439Y0225556D01*
X0330508Y0225660D01*
X0330581Y0225761D01*
X0330656Y0225861D01*
X0330735Y0225958D01*
X0330817Y0226052D01*
X0330902Y0226144D01*
X0330989Y0226233D01*
X0331080Y0226319D01*
X0331173Y0226402D01*
X0331269Y0226483D01*
X0331367Y0226560D01*
X0331467Y0226634D01*
X0331570Y0226705D01*
X0331675Y0226772D01*
X0331783Y0226837D01*
X0331892Y0226897D01*
X0332003Y0226955D01*
X0332116Y0227008D01*
X0332230Y0227058D01*
X0332346Y0227105D01*
X0332463Y0227147D01*
X0332582Y0227186D01*
X0332702Y0227222D01*
X0332823Y0227253D01*
X0332945Y0227281D01*
X0333067Y0227304D01*
X0333191Y0227324D01*
X0333315Y0227340D01*
X0333439Y0227352D01*
X0333564Y0227360D01*
X0333689Y0227364D01*
X0333813Y0227364D01*
X0333938Y0227360D01*
X0334063Y0227352D01*
X0334187Y0227340D01*
X0334311Y0227324D01*
X0334435Y0227304D01*
X0334557Y0227281D01*
X0334679Y0227253D01*
X0334800Y0227222D01*
X0334920Y0227186D01*
X0335039Y0227147D01*
X0335156Y0227105D01*
X0335272Y0227058D01*
X0335386Y0227008D01*
X0335499Y0226955D01*
X0335610Y0226897D01*
X0335720Y0226837D01*
X0335827Y0226772D01*
X0335932Y0226705D01*
X0336035Y0226634D01*
X0336135Y0226560D01*
X0336233Y0226483D01*
X0336329Y0226402D01*
X0336422Y0226319D01*
X0336513Y0226233D01*
X0336600Y0226144D01*
X0336685Y0226052D01*
X0336767Y0225958D01*
X0336846Y0225861D01*
X0336921Y0225761D01*
X0336994Y0225660D01*
X0337063Y0225556D01*
X0337129Y0225449D01*
X0337191Y0225341D01*
X0337250Y0225231D01*
X0337306Y0225119D01*
X0337358Y0225005D01*
X0337406Y0224890D01*
X0337451Y0224774D01*
X0337491Y0224655D01*
X0337529Y0224536D01*
X0337562Y0224416D01*
X0337591Y0224294D01*
X0337617Y0224172D01*
X0337639Y0224049D01*
X0337656Y0223925D01*
X0337670Y0223801D01*
X0337680Y0223677D01*
X0337686Y0223552D01*
X0337688Y0223427D01*
X0337686Y0223302D01*
X0337680Y0223177D01*
X0337670Y0223053D01*
X0337656Y0222929D01*
X0337639Y0222805D01*
X0337617Y0222682D01*
X0337591Y0222560D01*
X0337562Y0222438D01*
X0337529Y0222318D01*
X0337491Y0222199D01*
X0337451Y0222080D01*
X0337406Y0221964D01*
X0337358Y0221849D01*
X0337306Y0221735D01*
X0337250Y0221623D01*
X0337191Y0221513D01*
X0337129Y0221405D01*
X0337063Y0221298D01*
X0336994Y0221194D01*
X0336921Y0221093D01*
X0336846Y0220993D01*
X0336767Y0220896D01*
X0336685Y0220802D01*
X0336600Y0220710D01*
X0336513Y0220621D01*
X0336422Y0220535D01*
X0336329Y0220452D01*
X0336233Y0220371D01*
X0336135Y0220294D01*
X0336035Y0220220D01*
X0335932Y0220149D01*
X0335827Y0220082D01*
X0335719Y0220017D01*
X0335610Y0219957D01*
X0335499Y0219899D01*
X0335386Y0219846D01*
X0335272Y0219796D01*
X0335156Y0219749D01*
X0335039Y0219707D01*
X0334920Y0219668D01*
X0334800Y0219632D01*
X0334679Y0219601D01*
X0334557Y0219573D01*
X0334435Y0219550D01*
X0334311Y0219530D01*
X0334187Y0219514D01*
X0334063Y0219502D01*
X0333938Y0219494D01*
X0333813Y0219490D01*
X0333689Y0219490D01*
X0333564Y0219494D01*
X0333439Y0219502D01*
X0333315Y0219514D01*
X0333191Y0219530D01*
X0333067Y0219550D01*
X0332945Y0219573D01*
X0332823Y0219601D01*
X0332702Y0219632D01*
X0332582Y0219668D01*
X0332463Y0219707D01*
X0332346Y0219749D01*
X0332230Y0219796D01*
X0332116Y0219846D01*
X0332003Y0219899D01*
X0331892Y0219957D01*
X0331782Y0220017D01*
X0331675Y0220082D01*
X0331570Y0220149D01*
X0331467Y0220220D01*
X0331367Y0220294D01*
X0331269Y0220371D01*
X0331173Y0220452D01*
X0331080Y0220535D01*
X0330989Y0220621D01*
X0330902Y0220710D01*
X0330817Y0220802D01*
X0330735Y0220896D01*
X0330656Y0220993D01*
X0330581Y0221093D01*
X0330508Y0221194D01*
X0330439Y0221298D01*
X0330373Y0221405D01*
X0330311Y0221513D01*
X0330252Y0221623D01*
X0330196Y0221735D01*
X0330144Y0221849D01*
X0330096Y0221964D01*
X0330051Y0222080D01*
X0330011Y0222199D01*
X0329973Y0222318D01*
X0329940Y0222438D01*
X0329911Y0222560D01*
X0329885Y0222682D01*
X0329863Y0222805D01*
X0329846Y0222929D01*
X0329832Y0223053D01*
X0329822Y0223177D01*
X0329816Y0223302D01*
X0329814Y0223427D01*
X0329814Y0152561D02*
X0329816Y0152686D01*
X0329822Y0152811D01*
X0329832Y0152935D01*
X0329846Y0153059D01*
X0329863Y0153183D01*
X0329885Y0153306D01*
X0329911Y0153428D01*
X0329940Y0153550D01*
X0329973Y0153670D01*
X0330011Y0153789D01*
X0330051Y0153908D01*
X0330096Y0154024D01*
X0330144Y0154139D01*
X0330196Y0154253D01*
X0330252Y0154365D01*
X0330311Y0154475D01*
X0330373Y0154583D01*
X0330439Y0154690D01*
X0330508Y0154794D01*
X0330581Y0154895D01*
X0330656Y0154995D01*
X0330735Y0155092D01*
X0330817Y0155186D01*
X0330902Y0155278D01*
X0330989Y0155367D01*
X0331080Y0155453D01*
X0331173Y0155536D01*
X0331269Y0155617D01*
X0331367Y0155694D01*
X0331467Y0155768D01*
X0331570Y0155839D01*
X0331675Y0155906D01*
X0331783Y0155971D01*
X0331892Y0156031D01*
X0332003Y0156089D01*
X0332116Y0156142D01*
X0332230Y0156192D01*
X0332346Y0156239D01*
X0332463Y0156281D01*
X0332582Y0156320D01*
X0332702Y0156356D01*
X0332823Y0156387D01*
X0332945Y0156415D01*
X0333067Y0156438D01*
X0333191Y0156458D01*
X0333315Y0156474D01*
X0333439Y0156486D01*
X0333564Y0156494D01*
X0333689Y0156498D01*
X0333813Y0156498D01*
X0333938Y0156494D01*
X0334063Y0156486D01*
X0334187Y0156474D01*
X0334311Y0156458D01*
X0334435Y0156438D01*
X0334557Y0156415D01*
X0334679Y0156387D01*
X0334800Y0156356D01*
X0334920Y0156320D01*
X0335039Y0156281D01*
X0335156Y0156239D01*
X0335272Y0156192D01*
X0335386Y0156142D01*
X0335499Y0156089D01*
X0335610Y0156031D01*
X0335720Y0155971D01*
X0335827Y0155906D01*
X0335932Y0155839D01*
X0336035Y0155768D01*
X0336135Y0155694D01*
X0336233Y0155617D01*
X0336329Y0155536D01*
X0336422Y0155453D01*
X0336513Y0155367D01*
X0336600Y0155278D01*
X0336685Y0155186D01*
X0336767Y0155092D01*
X0336846Y0154995D01*
X0336921Y0154895D01*
X0336994Y0154794D01*
X0337063Y0154690D01*
X0337129Y0154583D01*
X0337191Y0154475D01*
X0337250Y0154365D01*
X0337306Y0154253D01*
X0337358Y0154139D01*
X0337406Y0154024D01*
X0337451Y0153908D01*
X0337491Y0153789D01*
X0337529Y0153670D01*
X0337562Y0153550D01*
X0337591Y0153428D01*
X0337617Y0153306D01*
X0337639Y0153183D01*
X0337656Y0153059D01*
X0337670Y0152935D01*
X0337680Y0152811D01*
X0337686Y0152686D01*
X0337688Y0152561D01*
X0337686Y0152436D01*
X0337680Y0152311D01*
X0337670Y0152187D01*
X0337656Y0152063D01*
X0337639Y0151939D01*
X0337617Y0151816D01*
X0337591Y0151694D01*
X0337562Y0151572D01*
X0337529Y0151452D01*
X0337491Y0151333D01*
X0337451Y0151214D01*
X0337406Y0151098D01*
X0337358Y0150983D01*
X0337306Y0150869D01*
X0337250Y0150757D01*
X0337191Y0150647D01*
X0337129Y0150539D01*
X0337063Y0150432D01*
X0336994Y0150328D01*
X0336921Y0150227D01*
X0336846Y0150127D01*
X0336767Y0150030D01*
X0336685Y0149936D01*
X0336600Y0149844D01*
X0336513Y0149755D01*
X0336422Y0149669D01*
X0336329Y0149586D01*
X0336233Y0149505D01*
X0336135Y0149428D01*
X0336035Y0149354D01*
X0335932Y0149283D01*
X0335827Y0149216D01*
X0335719Y0149151D01*
X0335610Y0149091D01*
X0335499Y0149033D01*
X0335386Y0148980D01*
X0335272Y0148930D01*
X0335156Y0148883D01*
X0335039Y0148841D01*
X0334920Y0148802D01*
X0334800Y0148766D01*
X0334679Y0148735D01*
X0334557Y0148707D01*
X0334435Y0148684D01*
X0334311Y0148664D01*
X0334187Y0148648D01*
X0334063Y0148636D01*
X0333938Y0148628D01*
X0333813Y0148624D01*
X0333689Y0148624D01*
X0333564Y0148628D01*
X0333439Y0148636D01*
X0333315Y0148648D01*
X0333191Y0148664D01*
X0333067Y0148684D01*
X0332945Y0148707D01*
X0332823Y0148735D01*
X0332702Y0148766D01*
X0332582Y0148802D01*
X0332463Y0148841D01*
X0332346Y0148883D01*
X0332230Y0148930D01*
X0332116Y0148980D01*
X0332003Y0149033D01*
X0331892Y0149091D01*
X0331782Y0149151D01*
X0331675Y0149216D01*
X0331570Y0149283D01*
X0331467Y0149354D01*
X0331367Y0149428D01*
X0331269Y0149505D01*
X0331173Y0149586D01*
X0331080Y0149669D01*
X0330989Y0149755D01*
X0330902Y0149844D01*
X0330817Y0149936D01*
X0330735Y0150030D01*
X0330656Y0150127D01*
X0330581Y0150227D01*
X0330508Y0150328D01*
X0330439Y0150432D01*
X0330373Y0150539D01*
X0330311Y0150647D01*
X0330252Y0150757D01*
X0330196Y0150869D01*
X0330144Y0150983D01*
X0330096Y0151098D01*
X0330051Y0151214D01*
X0330011Y0151333D01*
X0329973Y0151452D01*
X0329940Y0151572D01*
X0329911Y0151694D01*
X0329885Y0151816D01*
X0329863Y0151939D01*
X0329846Y0152063D01*
X0329832Y0152187D01*
X0329822Y0152311D01*
X0329816Y0152436D01*
X0329814Y0152561D01*
M02*
