G75*
%MOIN*%
%OFA0B0*%
%FSLAX25Y25*%
%IPPOS*%
%LPD*%
%AMOC8*
5,1,8,0,0,1.08239X$1,22.5*
%
%ADD10C,0.08674*%
%ADD11OC8,0.06000*%
%ADD12C,0.07400*%
%ADD13OC8,0.13200*%
%ADD14C,0.06000*%
%ADD15R,0.22060X0.25209*%
%ADD16R,0.04737X0.07099*%
%ADD17R,0.05918X0.06706*%
%ADD18R,0.06706X0.05918*%
%ADD19R,0.07099X0.07898*%
%ADD20R,0.02001X0.04001*%
%ADD21R,0.04001X0.02001*%
%ADD22C,0.06800*%
%ADD23R,0.03000X0.05500*%
%ADD24R,0.05500X0.03000*%
%ADD25C,0.06400*%
%ADD26C,0.05200*%
%ADD27OC8,0.06400*%
%ADD28C,0.10800*%
%ADD29OC8,0.06800*%
%ADD30OC8,0.07100*%
%ADD31C,0.07100*%
%ADD32C,0.05950*%
%ADD33C,0.04800*%
%ADD34C,0.05550*%
%ADD35C,0.05156*%
D10*
X0068003Y0152561D03*
X0068003Y0223427D03*
X0023712Y0317915D03*
X0063082Y0356892D03*
X0087491Y0384845D03*
X0142609Y0384845D03*
X0259145Y0384845D03*
X0314263Y0384845D03*
X0338672Y0356892D03*
X0378043Y0317915D03*
X0333751Y0223427D03*
X0333751Y0152561D03*
D11*
X0228180Y0244498D03*
X0228180Y0254498D03*
X0226424Y0266636D03*
X0226424Y0276636D03*
X0204822Y0309030D03*
X0194822Y0309030D03*
X0196507Y0321404D03*
X0206507Y0321404D03*
X0171641Y0322333D03*
X0161641Y0322333D03*
X0159401Y0311250D03*
X0169401Y0311250D03*
X0143401Y0319226D03*
X0133401Y0319226D03*
X0120129Y0303140D03*
X0110129Y0303140D03*
X0081066Y0296116D03*
X0081066Y0286116D03*
X0067735Y0287538D03*
X0067735Y0297538D03*
X0142794Y0254963D03*
X0142794Y0244963D03*
X0177645Y0227203D03*
X0187645Y0227203D03*
X0261850Y0340167D03*
X0271850Y0340167D03*
X0213224Y0085187D03*
X0203224Y0075187D03*
X0213224Y0065187D03*
X0133491Y0025628D03*
X0123491Y0025628D03*
X0121901Y0046475D03*
X0131901Y0046475D03*
X0105566Y0048045D03*
X0095566Y0048045D03*
D12*
X0145054Y0068423D03*
X0145054Y0108423D03*
X0123212Y0128045D03*
X0083212Y0128045D03*
X0041656Y0311128D03*
X0069941Y0339412D03*
X0097680Y0363022D03*
X0137680Y0363022D03*
X0265830Y0369171D03*
X0305830Y0369171D03*
X0322641Y0338487D03*
X0350925Y0310202D03*
D13*
X0302011Y0125163D03*
X0326511Y0105163D03*
X0302011Y0085163D03*
D14*
X0338701Y0320843D02*
X0342441Y0324456D01*
X0335495Y0331649D02*
X0331754Y0328037D01*
X0293854Y0366859D02*
X0293854Y0372059D01*
X0283854Y0372059D02*
X0283854Y0366859D01*
X0238003Y0363405D02*
X0238003Y0358205D01*
X0228003Y0358205D02*
X0228003Y0363405D01*
X0218003Y0363405D02*
X0218003Y0358205D01*
X0208003Y0358205D02*
X0208003Y0363405D01*
X0198003Y0363405D02*
X0198003Y0358205D01*
X0188003Y0358205D02*
X0188003Y0363405D01*
X0178003Y0363405D02*
X0178003Y0358205D01*
X0168003Y0358205D02*
X0168003Y0363405D01*
X0168003Y0388205D02*
X0168003Y0393405D01*
X0178003Y0393405D02*
X0178003Y0388205D01*
X0188003Y0388205D02*
X0188003Y0393405D01*
X0198003Y0393405D02*
X0198003Y0388205D01*
X0208003Y0388205D02*
X0208003Y0393405D01*
X0218003Y0393405D02*
X0218003Y0388205D01*
X0228003Y0388205D02*
X0228003Y0393405D01*
X0238003Y0393405D02*
X0238003Y0388205D01*
X0122932Y0365539D02*
X0122932Y0360339D01*
X0112932Y0360339D02*
X0112932Y0365539D01*
X0061560Y0325621D02*
X0057813Y0329227D01*
X0050879Y0322021D02*
X0054626Y0318415D01*
D15*
X0114444Y0096069D03*
X0073594Y0093632D03*
D16*
X0082570Y0064892D03*
X0064617Y0064892D03*
X0105468Y0067329D03*
X0123420Y0067329D03*
D17*
X0130007Y0283856D03*
X0137487Y0283856D03*
X0102287Y0328183D03*
X0094806Y0328183D03*
X0081121Y0360160D03*
X0073641Y0360160D03*
X0073121Y0373872D03*
X0080602Y0373872D03*
X0243546Y0349758D03*
X0251027Y0349758D03*
X0283991Y0339955D03*
X0291472Y0339955D03*
X0304527Y0326845D03*
X0312007Y0326845D03*
X0315109Y0307289D03*
X0307629Y0307289D03*
X0289802Y0305392D03*
X0282322Y0305392D03*
X0282483Y0314423D03*
X0289964Y0314423D03*
X0290165Y0323919D03*
X0282684Y0323919D03*
D18*
X0136409Y0272057D03*
X0136409Y0264577D03*
X0075267Y0267439D03*
X0075267Y0274919D03*
X0064413Y0275282D03*
X0064413Y0267801D03*
X0047318Y0286431D03*
X0047318Y0293912D03*
X0117255Y0336077D03*
X0117255Y0343557D03*
D19*
X0260928Y0324030D03*
X0260838Y0314699D03*
X0260814Y0305183D03*
X0272011Y0305183D03*
X0272035Y0314699D03*
X0272125Y0324030D03*
D20*
X0102613Y0286852D03*
X0100645Y0286852D03*
X0098676Y0286852D03*
X0098676Y0276813D03*
X0100645Y0276813D03*
X0102613Y0276813D03*
D21*
X0105665Y0277896D03*
X0105665Y0279864D03*
X0105665Y0281833D03*
X0105665Y0283801D03*
X0105665Y0285770D03*
X0095625Y0285770D03*
X0095625Y0283801D03*
X0095625Y0281833D03*
X0095625Y0279864D03*
X0095625Y0277896D03*
D22*
X0186066Y0212994D02*
X0192066Y0212994D01*
X0192066Y0202994D02*
X0186066Y0202994D01*
X0186066Y0192994D02*
X0192066Y0192994D01*
X0192066Y0182994D02*
X0186066Y0182994D01*
X0186066Y0172994D02*
X0192066Y0172994D01*
X0192066Y0162994D02*
X0186066Y0162994D01*
X0209259Y0163238D02*
X0215259Y0163238D01*
X0215259Y0173238D02*
X0209259Y0173238D01*
X0209259Y0183238D02*
X0215259Y0183238D01*
X0215259Y0193238D02*
X0209259Y0193238D01*
X0209259Y0203238D02*
X0215259Y0203238D01*
X0215259Y0213238D02*
X0209259Y0213238D01*
X0295889Y0258073D02*
X0301889Y0258073D01*
X0301889Y0268073D02*
X0295889Y0268073D01*
X0295889Y0278073D02*
X0301889Y0278073D01*
X0301889Y0288073D02*
X0295889Y0288073D01*
X0296834Y0052549D02*
X0296834Y0046549D01*
X0286834Y0046549D02*
X0286834Y0052549D01*
X0276834Y0052549D02*
X0276834Y0046549D01*
X0266834Y0046549D02*
X0266834Y0052549D01*
X0256834Y0052549D02*
X0256834Y0046549D01*
X0246834Y0046549D02*
X0246834Y0052549D01*
X0236834Y0052549D02*
X0236834Y0046549D01*
X0226834Y0046549D02*
X0226834Y0052549D01*
X0216834Y0052549D02*
X0216834Y0046549D01*
X0206834Y0046549D02*
X0206834Y0052549D01*
X0196834Y0052549D02*
X0196834Y0046549D01*
X0186834Y0046549D02*
X0186834Y0052549D01*
X0176834Y0052549D02*
X0176834Y0046549D01*
X0166834Y0046549D02*
X0166834Y0052549D01*
X0156834Y0052549D02*
X0156834Y0046549D01*
X0306834Y0046549D02*
X0306834Y0052549D01*
D23*
X0206980Y0237553D03*
X0203830Y0237553D03*
X0200680Y0237553D03*
X0197531Y0237553D03*
X0194381Y0237553D03*
X0191231Y0237553D03*
X0188082Y0237553D03*
X0184932Y0237553D03*
X0181783Y0237553D03*
X0178633Y0237553D03*
X0175483Y0237553D03*
X0172334Y0237553D03*
X0169184Y0237553D03*
X0166035Y0237553D03*
X0162885Y0237553D03*
X0159735Y0237553D03*
X0159735Y0298971D03*
X0162885Y0298971D03*
X0166035Y0298971D03*
X0169184Y0298971D03*
X0172334Y0298971D03*
X0175483Y0298971D03*
X0178633Y0298971D03*
X0181783Y0298971D03*
X0184932Y0298971D03*
X0188082Y0298971D03*
X0191231Y0298971D03*
X0194381Y0298971D03*
X0197531Y0298971D03*
X0200680Y0298971D03*
X0203830Y0298971D03*
X0206980Y0298971D03*
D24*
X0214066Y0291884D03*
X0214066Y0288734D03*
X0214066Y0285585D03*
X0214066Y0282435D03*
X0214066Y0279286D03*
X0214066Y0276136D03*
X0214066Y0272986D03*
X0214066Y0269837D03*
X0214066Y0266687D03*
X0214066Y0263538D03*
X0214066Y0260388D03*
X0214066Y0257238D03*
X0214066Y0254089D03*
X0214066Y0250939D03*
X0214066Y0247789D03*
X0214066Y0244640D03*
X0152649Y0244640D03*
X0152649Y0247789D03*
X0152649Y0250939D03*
X0152649Y0254089D03*
X0152649Y0257238D03*
X0152649Y0260388D03*
X0152649Y0263538D03*
X0152649Y0266687D03*
X0152649Y0269837D03*
X0152649Y0272986D03*
X0152649Y0276136D03*
X0152649Y0279286D03*
X0152649Y0282435D03*
X0152649Y0285585D03*
X0152649Y0288734D03*
X0152649Y0291884D03*
D25*
X0105361Y0029893D02*
X0105361Y0024293D01*
X0095361Y0024293D02*
X0095361Y0029893D01*
D26*
X0186468Y0337660D02*
X0186468Y0342060D01*
X0206468Y0342060D02*
X0206468Y0337660D01*
D27*
X0157716Y0338136D03*
X0157716Y0348136D03*
X0147716Y0348136D03*
X0147716Y0338136D03*
X0137716Y0338136D03*
X0137716Y0348136D03*
D28*
X0222893Y0323656D03*
X0248483Y0323656D03*
X0240905Y0289160D03*
X0240743Y0270459D03*
X0240546Y0252364D03*
X0266137Y0252364D03*
X0266334Y0270459D03*
X0266495Y0289160D03*
D29*
X0156617Y0371723D03*
X0092243Y0228108D03*
X0033106Y0084372D03*
X0261743Y0077498D03*
D30*
X0022208Y0028817D03*
X0040818Y0047534D03*
X0050326Y0020978D03*
X0072641Y0040597D03*
D31*
X0072641Y0030597D03*
X0050326Y0030978D03*
X0040818Y0057534D03*
X0022208Y0038817D03*
D32*
X0208980Y0095963D02*
X0208980Y0101112D01*
X0218980Y0101112D02*
X0218980Y0095963D01*
X0228980Y0095963D02*
X0228980Y0101112D01*
X0238980Y0101112D02*
X0238980Y0095963D01*
X0248980Y0095963D02*
X0248980Y0101112D01*
X0258980Y0101112D02*
X0258980Y0095963D01*
X0268980Y0095963D02*
X0268980Y0101112D01*
X0278980Y0101112D02*
X0278980Y0095963D01*
X0278980Y0145963D02*
X0278980Y0151112D01*
X0268980Y0151112D02*
X0268980Y0145963D01*
X0258980Y0145963D02*
X0258980Y0151112D01*
X0248980Y0151112D02*
X0248980Y0145963D01*
X0238980Y0145963D02*
X0238980Y0151112D01*
X0228980Y0151112D02*
X0228980Y0145963D01*
X0218980Y0145963D02*
X0218980Y0151112D01*
X0208980Y0151112D02*
X0208980Y0145963D01*
D33*
X0203830Y0121065D03*
X0224991Y0121065D03*
X0187590Y0093506D03*
X0190050Y0068408D03*
X0184637Y0068408D03*
X0223417Y0071057D03*
X0237787Y0068408D03*
X0166428Y0114667D03*
X0157631Y0122049D03*
X0158827Y0128703D03*
X0149972Y0126826D03*
X0146251Y0120081D03*
X0155109Y0169786D03*
X0158827Y0188129D03*
X0170253Y0191025D03*
X0162983Y0203250D03*
X0168397Y0205219D03*
X0198417Y0230809D03*
X0210720Y0223919D03*
X0217117Y0227856D03*
X0224007Y0220475D03*
X0232373Y0217522D03*
X0232373Y0212108D03*
X0228928Y0208171D03*
X0237787Y0217522D03*
X0237787Y0222935D03*
X0220027Y0245729D03*
X0203512Y0266429D03*
X0200227Y0272729D03*
X0193027Y0266429D03*
X0208012Y0273004D03*
X0207767Y0286419D03*
X0191227Y0293429D03*
X0184927Y0293429D03*
X0170182Y0292952D03*
X0172615Y0283839D03*
X0158009Y0284675D03*
X0159234Y0274933D03*
X0145292Y0280672D03*
X0137393Y0289864D03*
X0142965Y0307023D03*
X0148027Y0315929D03*
X0124709Y0323963D03*
X0129666Y0344729D03*
X0103927Y0337529D03*
X0101227Y0351929D03*
X0074227Y0325829D03*
X0067574Y0320775D03*
X0092227Y0289829D03*
X0090427Y0279929D03*
X0105629Y0271801D03*
X0104143Y0260338D03*
X0117855Y0260365D03*
X0130334Y0259684D03*
X0164460Y0243679D03*
X0169532Y0246612D03*
X0174842Y0243431D03*
X0221054Y0189963D03*
X0226468Y0189963D03*
X0233357Y0166833D03*
X0248827Y0249329D03*
X0229927Y0316829D03*
X0236274Y0341309D03*
X0271995Y0363400D03*
X0299792Y0334829D03*
X0310027Y0333029D03*
X0303727Y0316829D03*
X0202027Y0375329D03*
X0099427Y0317729D03*
X0042342Y0354419D03*
X0032688Y0330506D03*
D34*
X0085763Y0271337D03*
X0085637Y0256124D03*
X0115487Y0234467D03*
X0125342Y0234400D03*
X0126413Y0266671D03*
X0117405Y0276093D03*
X0111554Y0288951D03*
X0146539Y0292786D03*
X0146716Y0286837D03*
X0156397Y0304144D03*
D35*
X0124279Y0293337D03*
X0082783Y0279624D03*
X0077050Y0388585D03*
M02*
